<?xml version="1.0" standalone="no"?>
<!DOCTYPE svg PUBLIC "-//W3C//DTD SVG 20010904//EN"
 "http://www.w3.org/TR/2001/REC-SVG-20010904/DTD/svg10.dtd">
<svg version="1.0" xmlns="http://www.w3.org/2000/svg"
 width="700.000000pt" height="700.000000pt" viewBox="0 0 700.000000 700.000000"
 preserveAspectRatio="xMidYMid meet">
<metadata>
Created by potrace 1.14, written by Peter Selinger 2001-2017
</metadata>
<g transform="translate(0.000000,700.000000) scale(0.100000,-0.100000)"
fill="#000000" stroke="none">
<path d="M0 3500 l0 -3500 3500 0 3500 0 0 3500 0 3500 -3500 0 -3500 0 0
-3500z m6776 10 c1 -1796 -1 -3270 -3 -3276 -3 -7 -954 -10 -3276 -10 l-3272
1 -1 3270 c-1 1799 0 3273 2 3276 2 3 1476 5 3276 5 l3273 -1 1 -3265z"/>
<path d="M1819 5450 c-1 -3 -2 -883 -3 -1955 l-1 -1951 430 1 430 0 1 755 c1
415 2 760 3 765 1 11 837 12 969 1 233 -19 376 -111 460 -296 24 -53 58 -162
66 -211 3 -19 7 -43 10 -54 2 -11 7 -47 10 -80 4 -33 9 -71 11 -85 5 -27 7
-55 31 -337 6 -83 13 -149 19 -185 3 -16 7 -43 10 -60 8 -47 44 -178 55 -197
7 -14 58 -16 434 -16 235 -1 425 1 424 4 -2 4 -18 34 -36 69 -18 34 -39 89
-48 122 -16 65 -18 72 -29 140 -4 25 -9 54 -11 65 -7 37 -16 165 -29 429 -3
66 -8 133 -10 150 -2 17 -7 54 -10 81 -3 28 -8 57 -10 65 -2 8 -6 31 -9 50
-11 69 -48 194 -77 258 -45 101 -86 161 -158 232 -77 77 -145 120 -236 152
-36 13 -65 25 -65 28 0 3 30 19 67 35 294 132 473 376 533 724 65 382 -38 734
-289 981 -47 47 -113 103 -145 124 -126 83 -311 159 -441 180 -16 3 -50 8 -75
12 -51 8 -2279 12 -2281 4z m2011 -684 c199 -50 308 -149 356 -322 32 -118 24
-349 -17 -464 -56 -157 -204 -259 -414 -286 -86 -11 -1066 -10 -1073 1 -7 10
-11 1074 -5 1086 1 4 247 6 545 4 464 -2 552 -5 608 -19z"/>
</g>
</svg>
